<svg width="680" height="680" viewBox="0 0 680 680" xmlns="http://www.w3.org/2000/svg">
<title>PDF Phoenix icon</title>
<desc>A slender stylized phoenix in a red-orange-gold flame gradient rising from behind a cream-colored document page with a small folded corner and a thin red ribbon tab, on a dark square background.</desc>
<defs>
<linearGradient id="flame" x1="340" y1="650" x2="340" y2="70" gradientUnits="userSpaceOnUse">
<stop offset="0%" stop-color="#c1272d"/>
<stop offset="50%" stop-color="#f4812e"/>
<stop offset="100%" stop-color="#ffd166"/>
</linearGradient>
</defs>

<rect x="0" y="0" width="680" height="680" rx="72" fill="#1c1310"/>

<path d="M271 346 C 200 393 132 452 78 498 C 143 470 208 419 292 291 Z" fill="url(#flame)"/>
<path d="M409 346 C 480 393 548 452 602 498 C 537 470 472 419 388 291 Z" fill="url(#flame)"/>

<rect x="154" y="326" width="373" height="324" rx="16" fill="#faf7f0"/>
<polygon points="471,326 526,326 526,381" fill="#e8e1d0"/>

<rect x="187" y="326" width="25" height="131" fill="#d1373f"/>
<polygon points="187,457 212,457 199,482" fill="#faf7f0"/>

<rect x="250" y="498" width="249" height="11" rx="5.5" fill="#cfc6ae"/>
<rect x="250" y="537" width="207" height="11" rx="5.5" fill="#cfc6ae"/>
<rect x="250" y="576" width="228" height="11" rx="5.5" fill="#cfc6ae"/>

<path d="M303 236 C 222 210 116 202 50 215 C 106 229 202 254 292 291 Z" fill="url(#flame)"/>
<path d="M377 236 C 458 210 564 202 630 215 C 574 229 478 254 388 291 Z" fill="url(#flame)"/>

<path d="M340 70 C 306 148 303 199 303 236 C 303 273 320 291 340 291 C 360 291 377 273 377 236 C 377 199 374 148 340 70 Z" fill="url(#flame)"/>

<polygon points="299,183 274,189 301,200" fill="#ffd166"/>
<circle cx="323" cy="174" r="7" fill="#1c1310"/>
</svg>
